<?xml version="1.0" standalone="no"?>
<!DOCTYPE svg PUBLIC "-//W3C//DTD SVG 20010904//EN"
 "http://www.w3.org/TR/2001/REC-SVG-20010904/DTD/svg10.dtd">
<svg version="1.0" xmlns="http://www.w3.org/2000/svg"
 width="1024.000000pt" height="1024.000000pt" viewBox="0 0 1024.000000 1024.000000"
 preserveAspectRatio="xMidYMid meet">

<g transform="translate(1024.000000,1024.000000) scale(-0.200000,-0.200000)"
fill="#808080" stroke="#808080" stroke-width="200">
<path d="M2531 3611 c-2282 -1319 -2335 -1349 -2383 -1347 -43 1 -53 -3 -74
-27 -33 -38 -33 -96 0 -134 21 -24 31 -28 83 -28 56 -1 76 -10 755 -363 760
-394 748 -389 802 -336 34 35 36 92 3 128 -12 14 -302 170 -645 347 -486 252
-620 325 -610 334 11 10 1025 596 3872 2240 121 69 215 120 209 113 -5 -7
-568 -724 -1250 -1593 -682 -869 -1247 -1592 -1257 -1606 -15 -23 -19 -93 -36
-540 -11 -283 -20 -565 -22 -628 l-2 -114 32 -28 c35 -31 72 -37 109 -16 12 7
196 176 409 377 213 201 418 393 455 428 l68 63 634 -336 c522 -276 642 -335
673 -335 43 1 64 13 82 47 7 12 136 1056 287 2320 295 2458 283 2333 231 2368
-54 39 36 88 -2425 -1334z m1983 -1143 c-130 -1096 -240 -1996 -243 -2000 -3
-4 -278 137 -611 312 -333 176 -615 320 -628 320 -13 0 -32 -5 -42 -10 -10 -6
-195 -177 -411 -380 -216 -203 -394 -368 -396 -366 -8 8 29 893 38 910 21 37
2521 3217 2526 3212 3 -3 -102 -902 -233 -1998z"/>
</g>
</svg>
